<svg width="164" height="22" viewBox="0 0 164 22" fill="none" xmlns="http://www.w3.org/2000/svg">
<path d="M17.5127 20.7614L15.9527 15.7934H6.95271L5.39271 20.7614H0.664709L7.52871 0.361428H15.4007L22.2167 20.7614H17.5127ZM8.12871 11.9534H14.7767L12.1847 3.64943H10.7207L8.12871 11.9534ZM24.6857 20.7614V3.98543H34.1897V7.84943H29.0537V20.7614H24.6857ZM48.7348 20.7614L43.9108 14.2574H41.0068V20.7614H36.6388V0.361428H41.0068V10.3934H43.8148L48.0148 3.98543H52.9828L47.2468 12.2414L53.8468 20.7614H48.7348ZM65.3269 20.7614L61.9669 3.93743H60.9109V20.7614H56.5909V0.361428H65.6629L68.9509 17.1854H69.9829L73.2709 0.361428H82.3429V20.7614H78.0229V3.93743H76.9669L73.6069 20.7614H65.3269ZM96.1283 20.7614V17.6174H96.0083C95.2403 19.9454 93.4403 21.1454 90.8963 21.1454C87.7283 21.1454 84.9683 19.2974 84.9683 15.7214C84.9683 12.6014 87.1283 10.5134 91.9763 10.5134H96.1283V7.68143H86.8163V3.98543H100.496V20.7614H96.1283ZM89.0003 15.7454C89.0003 17.2334 90.3203 17.9054 92.1443 17.9054C94.5683 17.9054 96.1283 16.8974 96.1283 14.5694V13.7054H92.0723C90.0803 13.7054 89.0003 14.3054 89.0003 15.7454ZM104.865 20.7614V3.98543H114.369V7.84943H109.233V20.7614H104.865ZM128.915 20.7614L124.091 14.2574H121.187V20.7614H116.819V0.361428H121.187V10.3934H123.995L128.195 3.98543H133.163L127.427 12.2414L134.027 20.7614H128.915ZM142.982 21.1454C137.27 21.1454 133.67 17.4014 133.67 12.3614C133.67 7.29743 137.294 3.60143 142.718 3.60143C148.19 3.60143 151.622 7.29743 151.622 12.6734V13.6814H137.918C138.422 16.3214 140.486 17.6414 142.886 17.6414C145.022 17.6414 146.774 16.8014 147.374 15.2654H151.622C150.998 19.1534 147.326 21.1454 142.982 21.1454ZM138.086 10.3934H147.518C146.846 8.23343 144.998 7.10543 142.814 7.10543C140.702 7.10543 138.806 8.23343 138.086 10.3934ZM154.951 20.7614V0.361428H159.319V3.98543H163.903V7.84943H159.319V20.7614H154.951Z" fill="#000"/>
</svg>
