<svg width="200" height="30" viewBox="0 0 200 30" fill="none" xmlns="http://www.w3.org/2000/svg">
<path d="M49.5128 24.7614L47.9528 19.7934H38.9528L37.3928 24.7614H32.6648L39.5288 4.36143H47.4008L54.2168 24.7614H49.5128ZM40.1288 15.9534H46.7768L44.1848 7.64943H42.7208L40.1288 15.9534ZM56.6858 24.7614V7.98543H66.1898V11.8494H61.0538V24.7614H56.6858ZM81.3443 24.7614L76.5203 18.2574H73.6163V24.7614H69.2483V4.36143H73.6163V14.3934H76.4243L80.6243 7.98543H85.5923L79.8563 16.2414L86.4563 24.7614H81.3443ZM98.4404 24.7614L94.5284 7.93743H93.1364V24.7614H89.2004V4.36143H97.7204L101.272 21.1854H102.88L106.432 4.36143H114.952V24.7614H111.016V7.93743H109.624L105.712 24.7614H98.4404ZM128.832 24.7614V21.6174H128.712C127.944 23.9454 126.144 25.1454 123.6 25.1454C120.432 25.1454 117.672 23.2974 117.672 19.7214C117.672 16.6014 119.832 14.5134 124.68 14.5134H128.832V11.6814H119.52V7.98543H133.2V24.7614H128.832ZM121.704 19.7454C121.704 21.2334 123.024 21.9054 124.848 21.9054C127.272 21.9054 128.832 20.8974 128.832 18.5694V17.7054H124.776C122.784 17.7054 121.704 18.3054 121.704 19.7454ZM137.569 24.7614V7.98543H147.073V11.8494H141.937V24.7614H137.569ZM162.227 24.7614L157.403 18.2574H154.499V24.7614H150.131V4.36143H154.499V14.3934H157.307L161.507 7.98543H166.475L160.739 16.2414L167.339 24.7614H162.227ZM176.341 25.1454C170.629 25.1454 167.029 21.4014 167.029 16.3614C167.029 11.2974 170.653 7.60143 176.077 7.60143C181.549 7.60143 184.981 11.2974 184.981 16.6734V17.6814H171.277C171.781 20.3214 173.845 21.6414 176.245 21.6414C178.381 21.6414 180.133 20.8014 180.733 19.2654H184.981C184.357 23.1534 180.685 25.1454 176.341 25.1454ZM171.445 14.3934H180.877C180.205 12.2334 178.357 11.1054 176.173 11.1054C174.061 11.1054 172.165 12.2334 171.445 14.3934ZM188.311 24.7614V4.36143H192.679V7.98543H197.263V11.8494H192.679V24.7614H188.311Z" fill="#000"/>
<path fill-rule="evenodd" clip-rule="evenodd" d="M12.6737 25.3692C20.1228 25.8074 26.4732 20.8646 26.8577 14.3291C27.2422 7.79363 21.5151 2.14032 14.066 1.70209C11.4047 1.54554 8.88369 2.07577 6.72483 3.12005C8.29044 2.62107 10.0068 2.3933 11.7931 2.49838C18.5722 2.89719 23.7901 7.93911 23.4477 13.7598C23.1053 19.5806 17.3321 23.9759 10.553 23.5771C7.33493 23.3878 4.46862 22.1521 2.38194 20.2835C4.69309 23.1498 8.39996 25.1178 12.6737 25.3692Z" fill="#F8545C"/>
<path fill-rule="evenodd" clip-rule="evenodd" d="M2.67571 6.45875C0.524918 7.98155 -0.554086 12.0324 0.284707 15.1358C1.79871 18.535 6.30546 19.8491 10.2661 19.7542C15.2149 19.7542 18.1506 16.9942 18.1506 13.3874C18.1506 10.1162 15.8021 6.05336 6.40776 6.05336C5.14159 6.05567 3.88305 6.1969 2.67571 6.45875ZM1.79431 12.1467C2.4477 11.3722 3.35496 10.9309 4.30752 11.0305C5.26002 11.1302 6.05626 11.7497 6.53522 12.6425C6.60187 10.7317 5.74524 9.15043 4.5176 9.022C3.28994 8.89357 2.12455 10.2634 1.79431 12.1467ZM11.896 11.9666C10.9435 11.8669 10.0363 12.3082 9.38293 13.0826C9.71316 11.1992 10.8786 9.82939 12.1062 9.95783C13.334 10.0863 14.1906 11.6678 14.1238 13.5788C13.6449 12.6858 12.8486 12.0662 11.896 11.9666Z" fill="#F8545C"/>
</svg>
